<svg xmlns="http://www.w3.org/2000/svg" xmlns:xlink="http://www.w3.org/1999/xlink" viewBox="0,0,256,256" width="64px" height="64px" fill-rule="nonzero"><g fill="none" fill-rule="nonzero" stroke="none" stroke-width="none" stroke-linecap="none" stroke-linejoin="none" stroke-miterlimit="10" stroke-dasharray="" stroke-dashoffset="0" font-family="none" font-weight="none" font-size="none" text-anchor="none" style="mix-blend-mode: normal"><g transform="scale(4,4)"><ellipse cx="32" cy="61" rx="23" ry="3" fill="#000000" stroke="none" stroke-width="1" stroke-linecap="butt" stroke-linejoin="miter" opacity="0.3"></ellipse><path d="M51.681,17.802c0,0 -5.037,-4.812 -11.212,-5.767c-0.611,-0.094 -1.199,0.279 -1.362,0.873l-0.007,0.026c-0.173,0.63 0.193,1.291 0.827,1.465c4.617,1.275 7.175,2.972 9.563,5.007c0.147,0.125 -0.004,0.362 -0.178,0.278c-4.608,-2.215 -9.403,-3.684 -17.312,-3.684c-7.898,0 -12.69,1.465 -17.291,3.674c-0.176,0.084 -0.327,-0.153 -0.178,-0.279c2.448,-2.053 5.299,-3.878 9.538,-5.011c0.635,-0.17 1,-0.835 0.827,-1.466c-0.166,-0.605 -0.77,-0.967 -1.392,-0.865c-6.43,1.062 -11.185,5.748 -11.185,5.748c0,0 -6.057,8.734 -7.312,25.886c-0.048,0.65 0.17,1.312 0.624,1.78c5.036,5.195 11.736,6.293 14.27,6.525c0.664,0.061 1.304,-0.246 1.677,-0.802c0.635,-0.944 0.191,-2.22 -0.846,-2.688c-2.427,-1.096 -4.965,-2.698 -7.309,-5.051c-0.141,-0.142 0.038,-0.37 0.205,-0.26c3.963,2.613 9.692,4.809 18.372,4.809c8.68,0 14.409,-2.196 18.372,-4.809c0.167,-0.11 0.347,0.118 0.205,0.26c-2.343,2.353 -4.881,3.956 -7.309,5.051c-1.037,0.468 -1.48,1.744 -0.846,2.688c0.374,0.556 1.013,0.863 1.677,0.802c2.534,-0.232 9.233,-1.33 14.27,-6.525c0.454,-0.468 0.671,-1.13 0.624,-1.78c-1.254,-17.151 -7.312,-25.885 -7.312,-25.885zM24.5,40c-2.485,0 -4.5,-2.239 -4.5,-5c0,-2.761 2.015,-5 4.5,-5c2.485,0 4.5,2.239 4.5,5c0,2.761 -2.015,5 -4.5,5zM39.5,40c-2.485,0 -4.5,-2.239 -4.5,-5c0,-2.761 2.015,-5 4.5,-5c2.485,0 4.5,2.239 4.5,5c0,2.761 -2.015,5 -4.5,5z" fill="#6634c2" stroke="none" stroke-width="1" stroke-linecap="butt" stroke-linejoin="miter"></path><path d="M11.687,27.507c0.506,-1.551 1.054,-2.873 1.532,-3.997" fill="none" stroke="#ffffff" stroke-width="3" stroke-linecap="round" stroke-linejoin="round"></path><path d="M55.563,26.234c-2.556,0.76 -4.088,3.396 -3.426,6.005c0.938,3.7 1.566,7.674 1.869,11.812c0.107,1.458 0.841,2.709 1.906,3.547c0.844,-0.623 1.671,-1.323 2.456,-2.132c0.454,-0.468 0.671,-1.13 0.624,-1.78c-0.54,-7.392 -1.973,-13.212 -3.429,-17.452z" fill="#000000" stroke="none" stroke-width="1" stroke-linecap="butt" stroke-linejoin="miter" opacity="0.15"></path><path d="M6.762,37.07c2.266,0 4.319,-1.551 4.862,-3.853c0.789,-3.342 1.805,-6.417 3.02,-9.142c1.07,-2.398 0.083,-5.171 -2.185,-6.406c-0.084,0.078 -0.14,0.132 -0.14,0.132c0,0 -4.466,6.469 -6.521,19.168c0.323,0.063 0.645,0.101 0.964,0.101z" fill="#ffffff" stroke="none" stroke-width="1" stroke-linecap="butt" stroke-linejoin="miter" opacity="0.3"></path></g></g></svg>