<svg xmlns="http://www.w3.org/2000/svg"  viewBox="0 0 50 50" width="64px" height="64px"><path d="M 41.625 10.769531 C 37.644531 7.566406 31.347656 7.023438 31.078125 7.003906 C 30.660156 6.96875 30.261719 7.203125 30.089844 7.589844 C 30.074219 7.613281 29.9375 7.929688 29.785156 8.421875 C 32.417969 8.867188 35.652344 9.761719 38.578125 11.578125 C 39.046875 11.867188 39.191406 12.484375 38.902344 12.953125 C 38.710938 13.261719 38.386719 13.429688 38.050781 13.429688 C 37.871094 13.429688 37.6875 13.378906 37.523438 13.277344 C 32.492188 10.15625 26.210938 10 25 10 C 23.789063 10 17.503906 10.15625 12.476563 13.277344 C 12.007813 13.570313 11.390625 13.425781 11.101563 12.957031 C 10.808594 12.484375 10.953125 11.871094 11.421875 11.578125 C 14.347656 9.765625 17.582031 8.867188 20.214844 8.425781 C 20.0625 7.929688 19.925781 7.617188 19.914063 7.589844 C 19.738281 7.203125 19.34375 6.960938 18.921875 7.003906 C 18.652344 7.023438 12.355469 7.566406 8.320313 10.8125 C 6.214844 12.761719 2 24.152344 2 34 C 2 34.175781 2.046875 34.34375 2.132813 34.496094 C 5.039063 39.605469 12.972656 40.941406 14.78125 41 C 14.789063 41 14.800781 41 14.8125 41 C 15.132813 41 15.433594 40.847656 15.621094 40.589844 L 17.449219 38.074219 C 12.515625 36.800781 9.996094 34.636719 9.851563 34.507813 C 9.4375 34.144531 9.398438 33.511719 9.765625 33.097656 C 10.128906 32.683594 10.761719 32.644531 11.175781 33.007813 C 11.234375 33.0625 15.875 37 25 37 C 34.140625 37 38.78125 33.046875 38.828125 33.007813 C 39.242188 32.648438 39.871094 32.683594 40.238281 33.101563 C 40.601563 33.515625 40.5625 34.144531 40.148438 34.507813 C 40.003906 34.636719 37.484375 36.800781 32.550781 38.074219 L 34.378906 40.589844 C 34.566406 40.847656 34.867188 41 35.1875 41 C 35.199219 41 35.210938 41 35.21875 41 C 37.027344 40.941406 44.960938 39.605469 47.867188 34.496094 C 47.953125 34.34375 48 34.175781 48 34 C 48 24.152344 43.785156 12.761719 41.625 10.769531 Z M 18.5 30 C 16.566406 30 15 28.210938 15 26 C 15 23.789063 16.566406 22 18.5 22 C 20.433594 22 22 23.789063 22 26 C 22 28.210938 20.433594 30 18.5 30 Z M 31.5 30 C 29.566406 30 28 28.210938 28 26 C 28 23.789063 29.566406 22 31.5 22 C 33.433594 22 35 23.789063 35 26 C 35 28.210938 33.433594 30 31.5 30 Z"/></svg>

<svg xmlns="http://www.w3.org/2000/svg" xmlns:xlink="http://www.w3.org/1999/xlink" viewBox="0,0,256,256" width="64px" height="64px" fill-rule="nonzero"><g fill="#e5fdff" fill-rule="nonzero" stroke="none" stroke-width="1" stroke-linecap="butt" stroke-linejoin="miter" stroke-miterlimit="10" stroke-dasharray="" stroke-dashoffset="0" font-family="none" font-weight="none" font-size="none" text-anchor="none" style="mix-blend-mode: normal"><g transform="scale(5.12,5.12)"><path d="M41.625,10.76953c-3.98047,-3.20313 -10.27734,-3.74609 -10.54687,-3.76563c-0.41797,-0.03516 -0.81641,0.19922 -0.98828,0.58594c-0.01562,0.02344 -0.15234,0.33984 -0.30469,0.83203c2.63281,0.44531 5.86719,1.33984 8.79297,3.15625c0.46875,0.28906 0.61328,0.90625 0.32422,1.375c-0.19141,0.30859 -0.51562,0.47656 -0.85156,0.47656c-0.17969,0 -0.36328,-0.05078 -0.52734,-0.15234c-5.03125,-3.12109 -11.3125,-3.27734 -12.52344,-3.27734c-1.21094,0 -7.49609,0.15625 -12.52344,3.27734c-0.46875,0.29297 -1.08594,0.14844 -1.375,-0.32031c-0.29297,-0.47266 -0.14844,-1.08594 0.32031,-1.37891c2.92578,-1.8125 6.16016,-2.71094 8.79297,-3.15234c-0.15234,-0.49609 -0.28906,-0.80859 -0.30078,-0.83594c-0.17578,-0.38672 -0.57031,-0.62891 -0.99219,-0.58594c-0.26953,0.01953 -6.56641,0.5625 -10.60156,3.80859c-2.10547,1.94922 -6.32031,13.33984 -6.32031,23.1875c0,0.17578 0.04688,0.34375 0.13281,0.49609c2.90625,5.10938 10.83984,6.44531 12.64844,6.50391c0.00781,0 0.01953,0 0.03125,0c0.32031,0 0.62109,-0.15234 0.80859,-0.41016l1.82813,-2.51562c-4.93359,-1.27344 -7.45312,-3.4375 -7.59766,-3.56641c-0.41406,-0.36328 -0.45312,-0.99609 -0.08594,-1.41016c0.36328,-0.41406 0.99609,-0.45312 1.41016,-0.08984c0.05859,0.05469 4.69922,3.99219 13.82422,3.99219c9.14063,0 13.78125,-3.95312 13.82813,-3.99219c0.41406,-0.35937 1.04297,-0.32422 1.41016,0.09375c0.36328,0.41406 0.32422,1.04297 -0.08984,1.40625c-0.14453,0.12891 -2.66406,2.29297 -7.59766,3.56641l1.82813,2.51563c0.1875,0.25781 0.48828,0.41016 0.80859,0.41016c0.01172,0 0.02344,0 0.03125,0c1.80859,-0.05859 9.74219,-1.39453 12.64844,-6.50391c0.08594,-0.15234 0.13281,-0.32031 0.13281,-0.49609c0,-9.84766 -4.21484,-21.23828 -6.375,-23.23047zM18.5,30c-1.93359,0 -3.5,-1.78906 -3.5,-4c0,-2.21094 1.56641,-4 3.5,-4c1.93359,0 3.5,1.78906 3.5,4c0,2.21094 -1.56641,4 -3.5,4zM31.5,30c-1.93359,0 -3.5,-1.78906 -3.5,-4c0,-2.21094 1.56641,-4 3.5,-4c1.93359,0 3.5,1.78906 3.5,4c0,2.21094 -1.56641,4 -3.5,4z"></path></g></g></svg>

<svg xmlns="http://www.w3.org/2000/svg" xmlns:xlink="http://www.w3.org/1999/xlink" viewBox="0,0,256,256" width="64px" height="64px" fill-rule="nonzero"><g fill="none" fill-rule="nonzero" stroke="none" stroke-width="none" stroke-linecap="none" stroke-linejoin="none" stroke-miterlimit="10" stroke-dasharray="" stroke-dashoffset="0" font-family="none" font-weight="none" font-size="none" text-anchor="none" style="mix-blend-mode: normal"><g transform="scale(4,4)"><ellipse cx="32" cy="61" rx="23" ry="3" fill="#000000" stroke="none" stroke-width="1" stroke-linecap="butt" stroke-linejoin="miter" opacity="0.3"></ellipse><path d="M51.681,17.802c0,0 -5.037,-4.812 -11.212,-5.767c-0.611,-0.094 -1.199,0.279 -1.362,0.873l-0.007,0.026c-0.173,0.63 0.193,1.291 0.827,1.465c4.617,1.275 7.175,2.972 9.563,5.007c0.147,0.125 -0.004,0.362 -0.178,0.278c-4.608,-2.215 -9.403,-3.684 -17.312,-3.684c-7.898,0 -12.69,1.465 -17.291,3.674c-0.176,0.084 -0.327,-0.153 -0.178,-0.279c2.448,-2.053 5.299,-3.878 9.538,-5.011c0.635,-0.17 1,-0.835 0.827,-1.466c-0.166,-0.605 -0.77,-0.967 -1.392,-0.865c-6.43,1.062 -11.185,5.748 -11.185,5.748c0,0 -6.057,8.734 -7.312,25.886c-0.048,0.65 0.17,1.312 0.624,1.78c5.036,5.195 11.736,6.293 14.27,6.525c0.664,0.061 1.304,-0.246 1.677,-0.802c0.635,-0.944 0.191,-2.22 -0.846,-2.688c-2.427,-1.096 -4.965,-2.698 -7.309,-5.051c-0.141,-0.142 0.038,-0.37 0.205,-0.26c3.963,2.613 9.692,4.809 18.372,4.809c8.68,0 14.409,-2.196 18.372,-4.809c0.167,-0.11 0.347,0.118 0.205,0.26c-2.343,2.353 -4.881,3.956 -7.309,5.051c-1.037,0.468 -1.48,1.744 -0.846,2.688c0.374,0.556 1.013,0.863 1.677,0.802c2.534,-0.232 9.233,-1.33 14.27,-6.525c0.454,-0.468 0.671,-1.13 0.624,-1.78c-1.254,-17.151 -7.312,-25.885 -7.312,-25.885zM24.5,40c-2.485,0 -4.5,-2.239 -4.5,-5c0,-2.761 2.015,-5 4.5,-5c2.485,0 4.5,2.239 4.5,5c0,2.761 -2.015,5 -4.5,5zM39.5,40c-2.485,0 -4.5,-2.239 -4.5,-5c0,-2.761 2.015,-5 4.5,-5c2.485,0 4.5,2.239 4.5,5c0,2.761 -2.015,5 -4.5,5z" fill="#6634c2" stroke="none" stroke-width="1" stroke-linecap="butt" stroke-linejoin="miter"></path><path d="M11.687,27.507c0.506,-1.551 1.054,-2.873 1.532,-3.997" fill="none" stroke="#ffffff" stroke-width="3" stroke-linecap="round" stroke-linejoin="round"></path><path d="M55.563,26.234c-2.556,0.76 -4.088,3.396 -3.426,6.005c0.938,3.7 1.566,7.674 1.869,11.812c0.107,1.458 0.841,2.709 1.906,3.547c0.844,-0.623 1.671,-1.323 2.456,-2.132c0.454,-0.468 0.671,-1.13 0.624,-1.78c-0.54,-7.392 -1.973,-13.212 -3.429,-17.452z" fill="#000000" stroke="none" stroke-width="1" stroke-linecap="butt" stroke-linejoin="miter" opacity="0.15"></path><path d="M6.762,37.07c2.266,0 4.319,-1.551 4.862,-3.853c0.789,-3.342 1.805,-6.417 3.02,-9.142c1.07,-2.398 0.083,-5.171 -2.185,-6.406c-0.084,0.078 -0.14,0.132 -0.14,0.132c0,0 -4.466,6.469 -6.521,19.168c0.323,0.063 0.645,0.101 0.964,0.101z" fill="#ffffff" stroke="none" stroke-width="1" stroke-linecap="butt" stroke-linejoin="miter" opacity="0.3"></path></g></g></svg>

<?xml version="1.0"?><svg xmlns="http://www.w3.org/2000/svg"  viewBox="0 0 50 50" width="64px" height="64px">    <path d="M25,3C12.85,3,3,12.85,3,25c0,11.03,8.125,20.137,18.712,21.728V30.831h-5.443v-5.783h5.443v-3.848 c0-6.371,3.104-9.168,8.399-9.168c2.536,0,3.877,0.188,4.512,0.274v5.048h-3.612c-2.248,0-3.033,2.131-3.033,4.533v3.161h6.588 l-0.894,5.783h-5.694v15.944C38.716,45.318,47,36.137,47,25C47,12.85,37.15,3,25,3z"/></svg>

<svg xmlns="http://www.w3.org/2000/svg" xmlns:xlink="http://www.w3.org/1999/xlink" viewBox="0,0,256,256" width="64px" height="64px" fill-rule="nonzero"><g fill="none" fill-rule="nonzero" stroke="none" stroke-width="1" stroke-linecap="butt" stroke-linejoin="miter" stroke-miterlimit="10" stroke-dasharray="" stroke-dashoffset="0" font-family="none" font-weight="none" font-size="none" text-anchor="none" style="mix-blend-mode: normal"><g transform="scale(4,4)"><path d="M48.26,48.26c-3.47,3.48 -7.77,5.6 -12.26,6.38c-2.64,0.48 -5.36,0.48 -8,0c-4.49,-0.78 -8.79,-2.9 -12.26,-6.38c-8.99,-8.98 -8.99,-23.54 0,-32.52c8.98,-8.99 23.54,-8.99 32.52,0c8.99,8.98 8.99,23.54 0,32.52z" fill="#002aa9"></path><ellipse cx="32" cy="61" rx="19" ry="3" fill="#000000" opacity="0.3"></ellipse><path d="M36,28v4h4.847c0.609,0 1.076,0.539 0.99,1.141l-0.592,4.141c-0.14,0.986 -0.984,1.718 -1.98,1.718h-3.265v15.64c-2.64,0.48 -5.36,0.48 -8,0v-15.64h-4c-1.105,0 -2,-0.895 -2,-2v-3c0,-1.105 0.895,-2 2,-2h4v-4c0,-6.603 3.559,-11.426 12.354,-9.854c0.951,0.17 1.646,1.008 1.646,1.974v1.979c0,1.014 -0.762,1.879 -1.77,1.983c-2.82,0.29 -4.23,1.399 -4.23,3.918z" fill="#ffffff"></path><path d="M32,14c2.577,0 4.674,-1.957 4.946,-4.461c-1.594,-0.349 -3.247,-0.539 -4.946,-0.539c-12.703,0 -23,10.297 -23,23c0,1.699 0.19,3.352 0.539,4.946c2.505,-0.272 4.461,-2.369 4.461,-4.946c0,-9.925 8.075,-18 18,-18z" fill="#ffffff" opacity="0.3"></path><path d="M54.461,27.054c-2.505,0.272 -4.461,2.369 -4.461,4.946c0,9.925 -8.075,18 -18,18c-2.577,0 -4.674,1.957 -4.946,4.461c1.594,0.349 3.247,0.539 4.946,0.539c12.703,0 23,-10.297 23,-23c0,-1.699 -0.19,-3.352 -0.539,-4.946z" fill="#000000" opacity="0.15"></path><path d="M15.045,24.927c-0.229,0 -0.46,-0.053 -0.678,-0.163c-0.739,-0.375 -1.033,-1.278 -0.658,-2.017c2.019,-3.977 5.339,-7.241 9.347,-9.192c0.743,-0.364 1.642,-0.053 2.005,0.692c0.363,0.745 0.053,1.643 -0.692,2.005c-3.424,1.667 -6.26,4.456 -7.985,7.853c-0.265,0.522 -0.792,0.822 -1.339,0.822z" fill="#ffffff"></path></g></g></svg>

<svg xmlns="http://www.w3.org/2000/svg" xmlns:xlink="http://www.w3.org/1999/xlink" viewBox="0,0,256,256" width="64px" height="64px" fill-rule="nonzero"><g fill="#e5fdff" fill-rule="nonzero" stroke="none" stroke-width="1" stroke-linecap="butt" stroke-linejoin="miter" stroke-miterlimit="10" stroke-dasharray="" stroke-dashoffset="0" font-family="none" font-weight="none" font-size="none" text-anchor="none" style="mix-blend-mode: normal"><g transform="scale(5.12,5.12)"><path d="M17.791,46.836c0.711,-0.306 1.209,-1.013 1.209,-1.836v-5.4c0,-0.197 0.016,-0.402 0.041,-0.61c-0.014,0.004 -0.027,0.007 -0.041,0.01c0,0 -3,0 -3.6,0c-1.5,0 -2.8,-0.6 -3.4,-1.8c-0.7,-1.3 -1,-3.5 -2.8,-4.7c-0.3,-0.2 -0.1,-0.5 0.5,-0.5c0.6,0.1 1.9,0.9 2.7,2c0.9,1.1 1.8,2 3.4,2c2.487,0 3.82,-0.125 4.622,-0.555c0.934,-1.389 2.227,-2.445 3.578,-2.445v-0.025c-5.668,-0.182 -9.289,-2.066 -10.975,-4.975c-3.665,0.042 -6.856,0.405 -8.677,0.707c-0.058,-0.327 -0.108,-0.656 -0.151,-0.987c1.797,-0.296 4.843,-0.647 8.345,-0.714c-0.112,-0.276 -0.209,-0.559 -0.291,-0.849c-3.511,-0.178 -6.541,-0.039 -8.187,0.097c-0.02,-0.332 -0.047,-0.663 -0.051,-0.999c1.649,-0.135 4.597,-0.27 8.018,-0.111c-0.079,-0.5 -0.13,-1.011 -0.13,-1.543c0,-1.7 0.6,-3.5 1.7,-5c-0.5,-1.7 -1.2,-5.3 0.2,-6.6c2.7,0 4.6,1.3 5.5,2.1c1.699,-0.701 3.599,-1.101 5.699,-1.101c2.1,0 4,0.4 5.6,1.1c0.9,-0.8 2.8,-2.1 5.5,-2.1c1.5,1.4 0.7,5 0.2,6.6c1.1,1.5 1.7,3.2 1.6,5c0,0.484 -0.045,0.951 -0.11,1.409c3.499,-0.172 6.527,-0.034 8.204,0.102c-0.002,0.337 -0.033,0.666 -0.051,0.999c-1.671,-0.138 -4.775,-0.28 -8.359,-0.089c-0.089,0.336 -0.197,0.663 -0.325,0.98c3.546,0.046 6.665,0.389 8.548,0.689c-0.043,0.332 -0.093,0.661 -0.151,0.987c-1.912,-0.306 -5.171,-0.664 -8.879,-0.682c-1.665,2.878 -5.22,4.755 -10.777,4.974v0.031c2.6,0 5,3.9 5,6.6v5.4c0,0.823 0.498,1.53 1.209,1.836c9.161,-3.032 15.791,-11.672 15.791,-21.836c0,-12.682 -10.317,-23 -23,-23c-12.683,0 -23,10.318 -23,23c0,10.164 6.63,18.804 15.791,21.836z"></path></g></g></svg>

<?xml version="1.0"?><svg xmlns="http://www.w3.org/2000/svg"  viewBox="0 0 50 50" width="64px" height="64px">    <path d="M17.791,46.836C18.502,46.53,19,45.823,19,45v-5.4c0-0.197,0.016-0.402,0.041-0.61C19.027,38.994,19.014,38.997,19,39 c0,0-3,0-3.6,0c-1.5,0-2.8-0.6-3.4-1.8c-0.7-1.3-1-3.5-2.8-4.7C8.9,32.3,9.1,32,9.7,32c0.6,0.1,1.9,0.9,2.7,2c0.9,1.1,1.8,2,3.4,2 c2.487,0,3.82-0.125,4.622-0.555C21.356,34.056,22.649,33,24,33v-0.025c-5.668-0.182-9.289-2.066-10.975-4.975 c-3.665,0.042-6.856,0.405-8.677,0.707c-0.058-0.327-0.108-0.656-0.151-0.987c1.797-0.296,4.843-0.647,8.345-0.714 c-0.112-0.276-0.209-0.559-0.291-0.849c-3.511-0.178-6.541-0.039-8.187,0.097c-0.02-0.332-0.047-0.663-0.051-0.999 c1.649-0.135,4.597-0.27,8.018-0.111c-0.079-0.5-0.13-1.011-0.13-1.543c0-1.7,0.6-3.5,1.7-5c-0.5-1.7-1.2-5.3,0.2-6.6 c2.7,0,4.6,1.3,5.5,2.1C21,13.4,22.9,13,25,13s4,0.4,5.6,1.1c0.9-0.8,2.8-2.1,5.5-2.1c1.5,1.4,0.7,5,0.2,6.6c1.1,1.5,1.7,3.2,1.6,5 c0,0.484-0.045,0.951-0.11,1.409c3.499-0.172,6.527-0.034,8.204,0.102c-0.002,0.337-0.033,0.666-0.051,0.999 c-1.671-0.138-4.775-0.28-8.359-0.089c-0.089,0.336-0.197,0.663-0.325,0.98c3.546,0.046,6.665,0.389,8.548,0.689 c-0.043,0.332-0.093,0.661-0.151,0.987c-1.912-0.306-5.171-0.664-8.879-0.682C35.112,30.873,31.557,32.75,26,32.969V33 c2.6,0,5,3.9,5,6.6V45c0,0.823,0.498,1.53,1.209,1.836C41.37,43.804,48,35.164,48,25C48,12.318,37.683,2,25,2S2,12.318,2,25 C2,35.164,8.63,43.804,17.791,46.836z"/></svg>

<svg xmlns="http://www.w3.org/2000/svg" xmlns:xlink="http://www.w3.org/1999/xlink" viewBox="0,0,256,256" width="64px" height="64px" fill-rule="nonzero"><g fill="none" fill-rule="nonzero" stroke="none" stroke-width="none" stroke-linecap="none" stroke-linejoin="none" stroke-miterlimit="10" stroke-dasharray="" stroke-dashoffset="0" font-family="none" font-weight="none" font-size="none" text-anchor="none" style="mix-blend-mode: normal"><g transform="scale(4,4)"><circle cx="32" cy="32" r="23" fill="#6e0f91" stroke="none" stroke-width="1" stroke-linecap="butt" stroke-linejoin="miter"></circle><ellipse cx="32" cy="61" rx="19" ry="3" fill="#000000" stroke="none" stroke-width="1" stroke-linecap="butt" stroke-linejoin="miter" opacity="0.3"></ellipse><path d="M32,14c2.577,0 4.674,-1.957 4.946,-4.461c-1.594,-0.349 -3.247,-0.539 -4.946,-0.539c-12.703,0 -23,10.297 -23,23c0,1.699 0.19,3.352 0.539,4.946c2.505,-0.272 4.461,-2.369 4.461,-4.946c0,-9.925 8.075,-18 18,-18z" fill="#ffffff" stroke="none" stroke-width="1" stroke-linecap="butt" stroke-linejoin="miter" opacity="0.3"></path><path d="M15.047,23.427c1.878,-3.699 4.932,-6.705 8.666,-8.522" fill="none" stroke="#ffffff" stroke-width="3" stroke-linecap="round" stroke-linejoin="round"></path><path d="M37.184,43.111c4.556,-1.02 7.818,-3.645 7.818,-9.252c0,-2.6 -0.787,-4.556 -1.97,-6.011c-0.273,-0.336 -0.274,-1.056 -0.162,-1.474c0.281,-1.043 0.066,-2.404 -0.17,-3.383c-0.177,-0.73 -0.94,-1.156 -1.662,-0.949c-1.707,0.491 -3.115,1.466 -4.138,2.136c-0.279,0.182 -0.602,0.255 -0.931,0.203c-1.244,-0.197 -2.581,-0.282 -3.964,-0.302l-0.005,0.034v-0.033c-1.383,0.02 -2.72,0.105 -3.964,0.302c-0.329,0.052 -0.652,-0.021 -0.931,-0.203c-1.023,-0.669 -2.431,-1.644 -4.138,-2.136c-0.721,-0.208 -1.485,0.219 -1.662,0.949c-0.237,0.979 -0.451,2.341 -0.17,3.383c0.113,0.418 0.112,1.138 -0.162,1.474c-1.183,1.455 -1.97,3.41 -1.97,6.011c0,5.607 3.261,8.232 7.818,9.252c0.774,0.173 0.843,1.018 0.544,1.753c-0.236,0.582 -0.368,1.009 -0.368,1.677v0.315c-0.168,0.046 -0.342,0.087 -0.53,0.111c-1.142,0.147 -1.98,0 -2.559,-0.343c-0.58,-0.343 -1.267,-0.909 -1.783,-1.662c-0.435,-0.635 -1.375,-2.003 -3.596,-1.949c-0.388,-0.01 -0.565,0.354 -0.516,0.581c0.044,0.2 0.22,0.516 0.924,0.773c0.706,0.259 1.169,0.788 1.556,1.411c0.431,0.695 0.693,2.143 2.196,3.218c0.901,0.644 2.078,1.036 2.954,0.996c0.742,-0.034 1.355,0.574 1.355,1.317l0.001,1.628c0,0.659 -0.603,1.326 -1.228,1.21c1.854,0.624 4.129,0.813 6.229,0.84v-0.047l0.005,0.047c2.1,-0.026 4.375,-0.216 6.229,-0.84c-0.625,0.115 -1.228,-0.552 -1.228,-1.21l0.002,-6.396c0,-0.668 -0.132,-1.095 -0.368,-1.677c-0.298,-0.735 -0.23,-1.58 0.544,-1.754z" fill="#000000" stroke="none" stroke-width="1" stroke-linecap="butt" stroke-linejoin="miter"></path><path d="M54.461,27.054c-2.505,0.272 -4.461,2.369 -4.461,4.946c0,9.925 -8.075,18 -18,18c-2.577,0 -4.674,1.957 -4.946,4.461c1.594,0.349 3.247,0.539 4.946,0.539c12.703,0 23,-10.297 23,-23c0,-1.699 -0.19,-3.352 -0.539,-4.946z" fill="#000000" stroke="none" stroke-width="1" stroke-linecap="butt" stroke-linejoin="miter" opacity="0.15"></path></g></g></svg>

<svg xmlns="http://www.w3.org/2000/svg"  viewBox="0 0 64 64" width="64px" height="64px"><path d="M 21.580078 7 C 13.541078 7 7 13.544938 7 21.585938 L 7 42.417969 C 7 50.457969 13.544938 57 21.585938 57 L 42.417969 57 C 50.457969 57 57 50.455062 57 42.414062 L 57 21.580078 C 57 13.541078 50.455062 7 42.414062 7 L 21.580078 7 z M 47 15 C 48.104 15 49 15.896 49 17 C 49 18.104 48.104 19 47 19 C 45.896 19 45 18.104 45 17 C 45 15.896 45.896 15 47 15 z M 32 19 C 39.17 19 45 24.83 45 32 C 45 39.17 39.169 45 32 45 C 24.83 45 19 39.169 19 32 C 19 24.831 24.83 19 32 19 z M 32 23 C 27.029 23 23 27.029 23 32 C 23 36.971 27.029 41 32 41 C 36.971 41 41 36.971 41 32 C 41 27.029 36.971 23 32 23 z"/></svg>

<svg xmlns="http://www.w3.org/2000/svg" xmlns:xlink="http://www.w3.org/1999/xlink" viewBox="0,0,256,256" width="64px" height="64px" fill-rule="nonzero"><g fill="#e5fdff" fill-rule="nonzero" stroke="none" stroke-width="1" stroke-linecap="butt" stroke-linejoin="miter" stroke-miterlimit="10" stroke-dasharray="" stroke-dashoffset="0" font-family="none" font-weight="none" font-size="none" text-anchor="none" style="mix-blend-mode: normal"><g transform="scale(4,4)"><path d="M21.58008,7c-8.039,0 -14.58008,6.54494 -14.58008,14.58594v20.83203c0,8.04 6.54494,14.58203 14.58594,14.58203h20.83203c8.04,0 14.58203,-6.54494 14.58203,-14.58594v-20.83398c0,-8.039 -6.54494,-14.58008 -14.58594,-14.58008zM47,15c1.104,0 2,0.896 2,2c0,1.104 -0.896,2 -2,2c-1.104,0 -2,-0.896 -2,-2c0,-1.104 0.896,-2 2,-2zM32,19c7.17,0 13,5.83 13,13c0,7.17 -5.831,13 -13,13c-7.17,0 -13,-5.831 -13,-13c0,-7.169 5.83,-13 13,-13zM32,23c-4.971,0 -9,4.029 -9,9c0,4.971 4.029,9 9,9c4.971,0 9,-4.029 9,-9c0,-4.971 -4.029,-9 -9,-9z"></path></g></g></svg>

<svg xmlns="http://www.w3.org/2000/svg"  viewBox="0 0 64 64" width="64px" height="64px"><path fill="#9c34c2" d="M54,20v24c0,2.25-0.74,4.32-2,5.99V50c-1.69,2.24-4.29,3.75-7.25,3.97C44.51,53.99,44.25,54,44,54H20	c-5.52,0-10-4.48-10-10V20c0-0.25,0.01-0.51,0.03-0.75c0.22-2.96,1.73-5.56,3.97-7.25h0.01c1.67-1.26,3.74-2,5.99-2h24	C49.52,10,54,14.48,54,20z"/><path fill="#bc379c" d="M54,29.36V44c0,2.25-0.74,4.32-2,5.99V50c-1.69,2.24-4.29,3.75-7.25,3.97 C44.51,53.99,44.25,54,44,54H20c-5.52,0-10-4.48-10-10V20c0-0.25,0.01-0.51,0.03-0.75c0.22-2.96,1.73-5.56,3.97-7.25h0.01 c1.67-1.26,3.74-2,5.99-2h14.64C42.93,14.29,49.71,21.07,54,29.36z"/><path fill="#dd3975" d="M52,49.99V50c-1.69,2.24-4.29,3.75-7.25,3.97C44.51,53.99,44.25,54,44,54H20c-5.52,0-10-4.48-10-10 V20c0-0.25,0.01-0.51,0.03-0.75c0.22-2.96,1.73-5.56,3.97-7.25h0.01C34.99,12.01,51.99,29.01,52,49.99z"/><path fill="#fd3c4f" d="M45,50c0,1.34-0.09,2.67-0.25,3.97C44.51,53.99,44.25,54,44,54H20c-5.52,0-10-4.48-10-10V20 c0-0.25,0.01-0.51,0.03-0.75C11.33,19.09,12.66,19,14,19C31.12,19,45,32.88,45,50z"/><path fill="#fe6d42" d="M38,50c0,1.36-0.11,2.7-0.34,4H20c-5.52,0-10-4.48-10-10V26.34c1.3-0.23,2.64-0.34,4-0.34 C27.25,26,38,36.75,38,50z"/><path fill="#fe9d36" d="M32,50c0,1.37-0.15,2.71-0.46,4H20c-5.52,0-10-4.48-10-10V32.46c1.29-0.31,2.63-0.46,4-0.46 C23.94,32,32,40.06,32,50z"/><path fill="#ffce29" d="M25,50c0,1.41-0.27,2.76-0.75,4H20c-5.52,0-10-4.48-10-10v-4.25c1.24-0.48,2.59-0.75,4-0.75 C20.08,39,25,43.92,25,50z"/><ellipse cx="32" cy="61" opacity=".3" rx="20" ry="3"/><g><path fill="#fff" d="M31,15c2.761,0,5-2.238,5-5H20c-5.523,0-10,4.477-10,10v22c2.761,0,5-2.238,5-5V20 c0-2.757,2.243-5,5-5H31z" opacity=".3"/><path d="M54,44V22c-2.761,0-5,2.238-5,5v17c0,2.757-2.243,5-5,5H33c-2.761,0-5,2.238-5,5h16 C49.523,54,54,49.523,54,44z" opacity=".15"/></g><path fill="#fff" d="M14,21.5c-0.829,0-1.5-0.671-1.5-1.5c0-4.136,3.364-7.5,7.5-7.5c0.829,0,1.5,0.671,1.5,1.5	s-0.671,1.5-1.5,1.5c-2.481,0-4.5,2.019-4.5,4.5C15.5,20.829,14.829,21.5,14,21.5z"/><path fill="#fff" d="M39.5,48h-15c-4.687,0-8.5-3.813-8.5-8.5v-15c0-4.687,3.813-8.5,8.5-8.5h15	c4.687,0,8.5,3.813,8.5,8.5v15C48,44.187,44.187,48,39.5,48z M24.5,19c-3.033,0-5.5,2.467-5.5,5.5v15c0,3.033,2.467,5.5,5.5,5.5h15	c3.033,0,5.5-2.467,5.5-5.5v-15c0-3.033-2.467-5.5-5.5-5.5H24.5z"/><path fill="#fff" d="M32,40c-4.411,0-8-3.589-8-8s3.589-8,8-8s8,3.589,8,8S36.411,40,32,40z M32,27c-2.757,0-5,2.243-5,5	s2.243,5,5,5s5-2.243,5-5S34.757,27,32,27z"/><circle cx="40.5" cy="23.5" r="2" fill="#fff"/></svg>

<?xml version="1.0"?><svg xmlns="http://www.w3.org/2000/svg"  viewBox="0 0 50 50" width="64px" height="64px">    <path d="M41,4H9C6.24,4,4,6.24,4,9v32c0,2.76,2.24,5,5,5h32c2.76,0,5-2.24,5-5V9C46,6.24,43.76,4,41,4z M17,20v19h-6V20H17z M11,14.47c0-1.4,1.2-2.47,3-2.47s2.93,1.07,3,2.47c0,1.4-1.12,2.53-3,2.53C12.2,17,11,15.87,11,14.47z M39,39h-6c0,0,0-9.26,0-10 c0-2-1-4-3.5-4.04h-0.08C27,24.96,26,27.02,26,29c0,0.91,0,10,0,10h-6V20h6v2.56c0,0,1.93-2.56,5.81-2.56 c3.97,0,7.19,2.73,7.19,8.26V39z"/></svg>

<svg xmlns="http://www.w3.org/2000/svg" xmlns:xlink="http://www.w3.org/1999/xlink" viewBox="0,0,256,256" width="64px" height="64px" fill-rule="nonzero"><g fill="#e5fdff" fill-rule="nonzero" stroke="none" stroke-width="1" stroke-linecap="butt" stroke-linejoin="miter" stroke-miterlimit="10" stroke-dasharray="" stroke-dashoffset="0" font-family="none" font-weight="none" font-size="none" text-anchor="none" style="mix-blend-mode: normal"><g transform="scale(5.12,5.12)"><path d="M41,4h-32c-2.76,0 -5,2.24 -5,5v32c0,2.76 2.24,5 5,5h32c2.76,0 5,-2.24 5,-5v-32c0,-2.76 -2.24,-5 -5,-5zM17,20v19h-6v-19zM11,14.47c0,-1.4 1.2,-2.47 3,-2.47c1.8,0 2.93,1.07 3,2.47c0,1.4 -1.12,2.53 -3,2.53c-1.8,0 -3,-1.13 -3,-2.53zM39,39h-6c0,0 0,-9.26 0,-10c0,-2 -1,-4 -3.5,-4.04h-0.08c-2.42,0 -3.42,2.06 -3.42,4.04c0,0.91 0,10 0,10h-6v-19h6v2.56c0,0 1.93,-2.56 5.81,-2.56c3.97,0 7.19,2.73 7.19,8.26z"></path></g></g></svg>

<svg xmlns="http://www.w3.org/2000/svg" xmlns:xlink="http://www.w3.org/1999/xlink" viewBox="0,0,256,256" width="64px" height="64px" fill-rule="nonzero"><g fill="none" fill-rule="nonzero" stroke="none" stroke-width="none" stroke-linecap="none" stroke-linejoin="none" stroke-miterlimit="10" stroke-dasharray="" stroke-dashoffset="0" font-family="none" font-weight="none" font-size="none" text-anchor="none" style="mix-blend-mode: normal"><g transform="scale(4,4)"><circle cx="32" cy="32" r="23" fill="#346dc2" stroke="none" stroke-width="1" stroke-linecap="butt" stroke-linejoin="miter"></circle><ellipse cx="32" cy="61" rx="19" ry="3" fill="#000000" stroke="none" stroke-width="1" stroke-linecap="butt" stroke-linejoin="miter" opacity="0.3"></ellipse><path d="M32,14c2.577,0 4.674,-1.957 4.946,-4.461c-1.594,-0.349 -3.247,-0.539 -4.946,-0.539c-12.703,0 -23,10.297 -23,23c0,1.699 0.19,3.352 0.539,4.946c2.505,-0.272 4.461,-2.369 4.461,-4.946c0,-9.925 8.075,-18 18,-18z" fill="#ffffff" stroke="none" stroke-width="1" stroke-linecap="butt" stroke-linejoin="miter" opacity="0.3"></path><path d="M15.047,23.427c1.878,-3.699 4.932,-6.705 8.666,-8.522" fill="none" stroke="#ffffff" stroke-width="3" stroke-linecap="round" stroke-linejoin="round"></path><path d="M54.461,27.054c-2.505,0.272 -4.461,2.369 -4.461,4.946c0,9.925 -8.075,18 -18,18c-2.577,0 -4.674,1.957 -4.946,4.461c1.594,0.349 3.247,0.539 4.946,0.539c12.703,0 23,-10.297 23,-23c0,-1.699 -0.19,-3.352 -0.539,-4.946z" fill="#000000" stroke="none" stroke-width="1" stroke-linecap="butt" stroke-linejoin="miter" opacity="0.15"></path><g fill="#000000" stroke="none" stroke-width="1" stroke-linecap="butt" stroke-linejoin="miter"><path d="M21.321,27.071h3.286c0.454,0 0.821,0.368 0.821,0.821v14.786c0,0.454 -0.368,0.821 -0.821,0.821h-3.286c-0.454,0 -0.821,-0.368 -0.821,-0.821v-14.785c0,-0.454 0.368,-0.822 0.821,-0.822z"></path><path d="M22.95,25.429h-0.028c-1.471,0 -2.422,-1.096 -2.422,-2.465c0,-1.399 0.981,-2.463 2.478,-2.463c1.499,0 2.423,1.065 2.45,2.463c0.001,1.367 -0.951,2.465 -2.478,2.465z"></path><path d="M39.393,43.5c-0.454,0 -0.821,-0.368 -0.821,-0.821v-7.899c0,-2.106 -1.174,-3.544 -3.059,-3.544c-1.438,0 -2.217,0.97 -2.594,1.907c-0.138,0.335 -0.097,1.263 -0.097,1.732v7.804c0,0.454 -0.368,0.821 -0.821,0.821h-3.286c-0.454,0 -0.821,-0.368 -0.821,-0.821v-14.786c0,-0.454 0.368,-0.821 0.821,-0.821h3.285c0.454,0 0.821,0.368 0.821,0.821v1.643c0.691,-1.07 1.91,-2.469 4.677,-2.469c3.429,0 6,2.298 6,7.112l0.001,8.499c0,0.454 -0.368,0.822 -0.821,0.822z"></path></g></g></g></svg>

<svg xmlns="http://www.w3.org/2000/svg"  viewBox="0 0 50 50" width="64px" height="64px"><path d="M 11 4 C 7.134 4 4 7.134 4 11 L 4 39 C 4 42.866 7.134 46 11 46 L 39 46 C 42.866 46 46 42.866 46 39 L 46 11 C 46 7.134 42.866 4 39 4 L 11 4 z M 13.085938 13 L 21.023438 13 L 26.660156 21.009766 L 33.5 13 L 36 13 L 27.789062 22.613281 L 37.914062 37 L 29.978516 37 L 23.4375 27.707031 L 15.5 37 L 13 37 L 22.308594 26.103516 L 13.085938 13 z M 16.914062 15 L 31.021484 35 L 34.085938 35 L 19.978516 15 L 16.914062 15 z"/></svg>

<svg xmlns="http://www.w3.org/2000/svg" xmlns:xlink="http://www.w3.org/1999/xlink" viewBox="0,0,256,256" width="64px" height="64px" fill-rule="nonzero"><g fill="#e5fdff" fill-rule="nonzero" stroke="none" stroke-width="1" stroke-linecap="butt" stroke-linejoin="miter" stroke-miterlimit="10" stroke-dasharray="" stroke-dashoffset="0" font-family="none" font-weight="none" font-size="none" text-anchor="none" style="mix-blend-mode: normal"><g transform="scale(5.12,5.12)"><path d="M11,4c-3.866,0 -7,3.134 -7,7v28c0,3.866 3.134,7 7,7h28c3.866,0 7,-3.134 7,-7v-28c0,-3.866 -3.134,-7 -7,-7zM13.08594,13h7.9375l5.63672,8.00977l6.83984,-8.00977h2.5l-8.21094,9.61328l10.125,14.38672h-7.93555l-6.54102,-9.29297l-7.9375,9.29297h-2.5l9.30859,-10.89648zM16.91406,15l14.10742,20h3.06445l-14.10742,-20z"></path></g></g></svg>

<svg xmlns="http://www.w3.org/2000/svg" xmlns:xlink="http://www.w3.org/1999/xlink" viewBox="0,0,256,256" width="64px" height="64px" fill-rule="nonzero"><defs><linearGradient x1="23.96" y1="-8.833" x2="23.96" y2="57.571" gradientUnits="userSpaceOnUse" id="color-1"><stop offset="0" stop-color="#fcfcfc" stop-opacity="0.81176"></stop><stop offset="1" stop-color="#262626" stop-opacity="0.8"></stop></linearGradient><linearGradient x1="29.297" y1="0.691" x2="39.862" y2="29.719" gradientUnits="userSpaceOnUse" id="color-2"><stop offset="0" stop-color="#fcfcfc" stop-opacity="0.81176"></stop><stop offset="1" stop-color="#262626" stop-opacity="0.8"></stop></linearGradient><linearGradient x1="40.121" y1="8.873" x2="3.257" y2="45.737" gradientUnits="userSpaceOnUse" id="color-3"><stop offset="0" stop-color="#fcfcfc" stop-opacity="0.81176"></stop><stop offset="1" stop-color="#262626" stop-opacity="0.8"></stop></linearGradient></defs><g fill="none" fill-rule="nonzero" stroke="none" stroke-width="1" stroke-linecap="butt" stroke-linejoin="miter" stroke-miterlimit="10" stroke-dasharray="" stroke-dashoffset="0" font-family="none" font-weight="none" font-size="none" text-anchor="none" style="mix-blend-mode: normal"><g transform="scale(5.33333,5.33333)"><path d="M18.496,7.737c-0.746,-1.087 -1.98,-1.737 -3.299,-1.737h-9.275l23.502,34.263c0.746,1.087 1.98,1.737 3.299,1.737h9.275z" fill="url(#color-1)"></path><path d="M27.797,21.297l13.203,-15.297h-3.713l-11.134,12.9z" fill="url(#color-2)"></path><path d="M19.811,26.248l-13.596,15.752h3.714l11.526,-13.355z" fill="url(#color-3)"></path></g></g></svg>

